<svg xmlns="http://www.w3.org/2000/svg" width="48" height="48" viewBox="0 0 48 48"><g id="Group_243" data-name="Group 243" transform="translate(-11 -653)"><circle id="Ellipse_218" cx="24" cy="24" r="24" fill="#fff2dd" data-name="Ellipse 218" transform="translate(11 653)"/><path id="Path_442" fill="rgba(251,161,18,0.28)" d="M30.8,29.534c-5.488,0-11.71-3.22-17.371-6.186C6.025,19.469,0,16.233,0,24a24,24,0,0,0,48,0C48,10.745,44.055,29.534,30.8,29.534Z" data-name="Path 442" transform="translate(11 653)"/><g id="Group_244" data-name="Group 244" transform="translate(119.095 579.708) rotate(-79)"><path id="Path_444" fill="#fc9c04" d="M253.3-59.516a31.166,31.166,0,0,0-.736-3.856c-.156-.369-.122-.992-.418-1.212-1.288.578-2.613,1.013-3.883,1.619a12.324,12.324,0,0,1,4.748,7.6A11.231,11.231,0,0,0,253.3-59.516Z" data-name="Path 444" transform="translate(-352.06 -10.038)"/><path id="Path_445" fill="#fc9c04" d="M138.542,177.106c.314-.349-2.089,0-2.449-.092C137.3,178.841,137.224,178.5,138.542,177.106Z" data-name="Path 445" transform="translate(-245.832 -238.784)"/><path id="Path_446" fill="#fc9c04" d="M-99.23-49.608c-.119-1.751-1.433-2.974-2.218-4.437-.97-2.224,1.221-4.527,1.622-6.465,1.437-6.212-2.3-11.945-8.182-14.022-5.171-1.651-11.124.012-15.471,3.025,2.521,3.975,6.463,8.062,11.152,9.107,2.086-2.066,1.925-5.558.511-7.936.464-.176,1.38.622,1.684,1.154A9.91,9.91,0,0,1-107.86-69a8.258,8.258,0,0,1,6.417,6.718c-1.269-3.054-4.741-6.382-8.174-5.172.642,1.859-.187,3.83-1.263,5.386,2.1,0,4.4-.517,6.34.549,1.868,1.19,3.392,3.912,2.083,5.963-1.139,2.033-5.837,2.131-5.145,4.985.9-.3,1.968-.464,2.9-.816.492-.017,1.5-.905,1.671-.266C-102.682-50.3-98.623-45.761-99.23-49.608ZM-116.264-69.6a1.486,1.486,0,0,1-1.451-1.489,1.457,1.457,0,0,1,2.093-1.3A1.491,1.491,0,0,1-116.264-69.6Z" data-name="Path 446" transform="translate(0)"/></g><path id="Path_443" fill="#fb9b04" d="M17.2,29.534c5.488,0,11.71-3.22,17.371-6.186C41.975,19.469,48,16.233,48,24A24,24,0,0,1,0,24C0,10.745,3.945,29.534,17.2,29.534Z" data-name="Path 443" opacity=".19" transform="translate(11 653)"/></g></svg>