<svg xmlns="http://www.w3.org/2000/svg" width="48" height="48" viewBox="0 0 48 48">
  <g id="Group_649" data-name="Group 649" transform="translate(-80 -548)">
    <circle id="Ellipse_218" data-name="Ellipse 218" cx="24" cy="24" r="24" transform="translate(80 548)" fill="#d4ffcf"/>
    <path id="Path_442" data-name="Path 442" d="M30.8,29.534c-5.488,0-11.71-3.22-17.371-6.186C6.025,19.469,0,16.233,0,24a24,24,0,0,0,48,0C48,10.745,44.055,29.534,30.8,29.534Z" transform="translate(80 548)" fill="#60b158" opacity="0.57"/>
    <path id="Path_443" data-name="Path 443" d="M17.2,29.534c5.488,0,11.71-3.22,17.371-6.186C41.975,19.469,48,16.233,48,24A24,24,0,0,1,0,24C0,10.745,3.945,29.534,17.2,29.534Z" transform="translate(80 548)" fill="#51e8ee" opacity="0.62"/>
    <g id="Group_245" data-name="Group 245" transform="translate(-164.471 -140.521)">
      <path id="Path_447" data-name="Path 447" d="M272.981,725.639s-.471-1.016-3.121-.32a8.385,8.385,0,0,0-2.394,1.2,7.124,7.124,0,0,1-1.059.53s-.661-.543-1.018-.86c0,0,.359.676.439.854a.668.668,0,0,1,0,.727s-.3.7-.377.829a3.749,3.749,0,0,0,.673-.8c.084-.155.287-.587.373-.609a4.828,4.828,0,0,1,1.456-.037C271.73,727.517,272.982,725.65,272.981,725.639Z" transform="translate(-13.385 -4.975)" fill="rgba(18,26,85,0.48)"/>
      <path id="Path_448" data-name="Path 448" d="M375.193,750.114c0,.007-.508-1.41-3.3-1.238a6.044,6.044,0,0,0-2.516.921,5.62,5.62,0,0,1-1.111.426s-.7-.848-1.082-1.321c0,0,.385.932.472,1.18a1.034,1.034,0,0,1,0,.933s-.314.839-.389.993a3.5,3.5,0,0,0,.7-.881c.088-.182.3-.69.387-.7a4.261,4.261,0,0,1,1.535.3C373.887,752.12,375.193,750.124,375.193,750.114Z" transform="translate(-91.773 -25.235)" fill="rgba(18,26,85,0.48)"/>
      <path id="Path_449" data-name="Path 449" d="M417.406,720.457c0,.01-.4-1.06-2.63-1.23a4.593,4.593,0,0,0-2.01.423,4.618,4.618,0,0,1-.888.214s-.558-.676-.859-1.056c0,0,.3.716.373.9a.706.706,0,0,1,0,.683s-.252.59-.312.7a2.345,2.345,0,0,0,.56-.592c.07-.126.238-.479.31-.478a3.887,3.887,0,0,1,1.224.347C416.355,721.707,417.406,720.465,417.406,720.457Z" transform="translate(-128.995)" fill="rgba(18,26,85,0.48)"/>
      <path id="Path_450" data-name="Path 450" d="M327.8,725.3c0,.016-.838-2.155-5.47-1.419a11.684,11.684,0,0,0-4.178,1.843,11.326,11.326,0,0,1-1.846.849c0-.005-1.158-1.117-1.782-1.73,0,0,.63,1.292.772,1.643a1.366,1.366,0,0,1,0,1.378s-.527,1.3-.653,1.538a6.257,6.257,0,0,0,1.169-1.43c.146-.286.5-1.079.647-1.11a7.286,7.286,0,0,1,2.544.167C325.62,728.479,327.8,725.346,327.8,725.3Z" transform="translate(-52.391 -3.906)" fill="rgba(18,26,85,0.48)"/>
      <path id="Path_451" data-name="Path 451" d="M265.195,767.986c0-.009-1.123-2.623-6.9-1.34A18.1,18.1,0,0,0,253.12,769a13.056,13.056,0,0,1-2.293.968c0-.007-1.492-1.211-2.3-1.871,0,0,.835,1.4,1.024,1.779a1.282,1.282,0,0,1,.042,1.473c0,.006-.625,1.351-.777,1.583a5.928,5.928,0,0,0,1.429-1.459c.175-.3.593-1.155.78-1.19a10.521,10.521,0,0,1,3.2.176C262.59,772.188,265.2,768.1,265.195,767.986Z" transform="translate(147.648 -72.142) rotate(10)" fill="rgba(18,26,85,0.48)"/>
    </g>
  </g>
</svg>
