<svg xmlns="http://www.w3.org/2000/svg" width="69.144" height="41.093" viewBox="0 0 69.144 41.093">
  <g id="Group_317" data-name="Group 317" transform="translate(-305.913 -56.255)" opacity="0.5">
    <path id="Path_464" data-name="Path 464" d="M323.092,68.047a9.016,9.016,0,0,1,3.464,3.72,11.825,11.825,0,0,1,1.251,5.516,11.567,11.567,0,0,1-1.251,5.473,9.153,9.153,0,0,1-3.464,3.688,10.354,10.354,0,0,1-8.969.545,6.487,6.487,0,0,1-2.779-2.18l-.363,2.373h-5.067V57.143h6.115V68.881a6.907,6.907,0,0,1,2.544-1.572,9.98,9.98,0,0,1,3.464-.566A9.77,9.77,0,0,1,323.092,68.047Zm-2.844,12.817a5.729,5.729,0,0,0,.021-7.226,4.416,4.416,0,0,0-3.41-1.38,4.623,4.623,0,0,0-3.463,1.358,4.906,4.906,0,0,0-1.326,3.581,5.1,5.1,0,0,0,1.315,3.656,4.561,4.561,0,0,0,3.475,1.389A4.43,4.43,0,0,0,320.249,80.864Z" transform="translate(0 -0.503)" fill="#fff"/>
    <path id="Path_465" data-name="Path 465" d="M369.7,134.247a3.848,3.848,0,0,1,.021,5.537,4.371,4.371,0,0,1-5.826,0,3.846,3.846,0,0,1,.021-5.516,3.962,3.962,0,0,1,2.886-1.154A4.036,4.036,0,0,1,369.7,134.247Z" transform="translate(-32.2 -43.548)" fill="#fff"/>
    <rect id="Rectangle_129" data-name="Rectangle 129" width="6.115" height="19.755" transform="translate(331.548 66.924)" fill="#fff"/>
    <path id="Path_466" data-name="Path 466" d="M388.842,62.9a3.846,3.846,0,0,1-.022-5.537,4.371,4.371,0,0,1,5.826,0,3.845,3.845,0,0,1-.022,5.516,3.959,3.959,0,0,1-2.886,1.154A4.035,4.035,0,0,1,388.842,62.9Z" transform="translate(-46.315 0)" fill="#fff"/>
    <rect id="Rectangle_130" data-name="Rectangle 130" width="6.115" height="19.755" transform="translate(342.367 66.924)" fill="#fff"/>
    <path id="Path_467" data-name="Path 467" d="M432.114,80.6a9.049,9.049,0,0,1,3.464,3.7,12.7,12.7,0,0,1,0,10.99,9.117,9.117,0,0,1-3.464,3.709,9.706,9.706,0,0,1-5.057,1.315,10.147,10.147,0,0,1-3.463-.556,6.8,6.8,0,0,1-2.544-1.561v10.861h-6.115V79.977H420l.364,2.287a6.56,6.56,0,0,1,2.779-2.192,9.614,9.614,0,0,1,3.912-.78A9.77,9.77,0,0,1,432.114,80.6Zm-2.843,12.86a5.731,5.731,0,0,0,.021-7.227,4.416,4.416,0,0,0-3.41-1.379,4.627,4.627,0,0,0-3.464,1.357,4.965,4.965,0,0,0-1.325,3.624,5.026,5.026,0,0,0,1.315,3.635,4.6,4.6,0,0,0,3.474,1.368A4.433,4.433,0,0,0,429.271,93.457Z" transform="translate(-61.772 -13.053)" fill="#fff"/>
  </g>
</svg>
