<svg xmlns="http://www.w3.org/2000/svg" width="48" height="48" viewBox="0 0 48 48">
  <g id="Group_648" data-name="Group 648" transform="translate(-79 -636)">
    <circle id="Ellipse_219" data-name="Ellipse 219" cx="24" cy="24" r="24" transform="translate(79 636)" fill="#ffe6ea"/>
    <path id="Path_452" data-name="Path 452" d="M30.8,29.534c-5.488,0-11.71-3.22-17.371-6.186C6.025,19.469,0,16.233,0,24a24,24,0,0,0,48,0C48,10.745,44.055,29.534,30.8,29.534Z" transform="translate(79 636)" fill="#feb4c1"/>
    <path id="Path_453" data-name="Path 453" d="M17.2,29.534c5.488,0,11.71-3.22,17.371-6.186C41.975,19.469,48,16.233,48,24A24,24,0,0,1,0,24C0,10.745,3.945,29.534,17.2,29.534Z" transform="translate(79 636)" fill="#fe5b78" opacity="0.19"/>
    <path id="Path_454" data-name="Path 454" d="M2350.346,1742.75a19.549,19.549,0,0,0,3.064,3,.447.447,0,0,0,.59-.009,14.4,14.4,0,0,0,3.265-5,11.846,11.846,0,0,0,.7-2.435v0l0-.02c0-.016,0-.032,0-.048s0-.04,0-.06a.552.552,0,0,0-.006-.057.462.462,0,0,0-.008-.058.538.538,0,0,0-.016-.055c-.006-.018-.011-.037-.018-.054s-.017-.033-.026-.049-.018-.034-.029-.05-.022-.029-.034-.043-.025-.031-.039-.044-.028-.024-.042-.036a.591.591,0,0,0-.047-.037c-.016-.01-.033-.018-.049-.027s-.035-.019-.053-.027-.037-.012-.056-.018-.031-.012-.048-.015l-.829-.173.077-.844a.593.593,0,0,0-.514-.643,13.719,13.719,0,0,0-8.288,1.624.6.6,0,0,0-.27.393s-.116.978,1.958,3.836a15.3,15.3,0,0,0-1.635,1.412l-2.6-2.288c-.238-.225-.552-.32-.776-.082a.48.48,0,0,0-.089.13.565.565,0,0,0,.2.634l.051.051,2.4,2.422a14.8,14.8,0,0,0-1.021,1.322h0q-.148.215-.291.442l-2.849-1.714a.555.555,0,0,0-.8.111.563.563,0,0,0,.251.773l2.8,1.857a18.321,18.321,0,0,0-.865,1.882l-2.333-.857a.522.522,0,1,0-.4.951l2.33,1.024c-.216.662-.383,1.29-.512,1.864l-1.655-.223a.534.534,0,0,0-.681.4c-.059.322.153.525.49.6l1.618.388c-.086.523-.138.964-.168,1.3-3.05,2.5-3.265,6.233-2.765,7.043a.689.689,0,0,0,.6.349c.415,0,.61-.328.817-.673a5.325,5.325,0,0,1,.518-.75,5.389,5.389,0,0,1,.671-.628,1.113,1.113,0,0,1,2.219-.183,5.211,5.211,0,0,1,.765.51,5.363,5.363,0,0,1,.635.655c.261.306.507.6.917.53a.689.689,0,0,0,.531-.443v0c.352-.87-.44-4.4-3.71-6.389.021-.2.05-.449.091-.729q.025-.175.057-.368l1.428.161c.4.045.655-.084.684-.422.026-.3-.1-.468-.517-.568l-1.366-.336c.114-.5.259-1.049.442-1.623l2.519.887a.462.462,0,0,0,.686-.2.477.477,0,0,0-.322-.662l-.016-.007h0l-2.47-1.136a17.021,17.021,0,0,1,.773-1.7l.838.5h0l2.258,1.352a.5.5,0,0,0,.753-.125.548.548,0,0,0-.235-.743l-3.023-2.018a13.249,13.249,0,0,1,1.174-1.581l3.038,2.7c.267.239.534.305.755.063a.551.551,0,0,0-.094-.785l-2.887-2.846c.355-.349.689-.644.977-.881C2350.035,1742.987,2350.2,1742.856,2350.346,1742.75Zm3.357-5.058a1.043,1.043,0,1,1-.219,1.458A1.043,1.043,0,0,1,2353.7,1737.693Z" transform="translate(-236.897 3578.324) rotate(-120)" fill="rgba(18,26,85,0.68)"/>
  </g>
</svg>
