<svg xmlns="http://www.w3.org/2000/svg" width="67.305" height="40" viewBox="0 0 67.305 40">
  <g id="Group_317" data-name="Group 317" transform="translate(-305.913 -56.255)">
    <path id="Path_464" data-name="Path 464" d="M322.635,67.757a8.777,8.777,0,0,1,3.372,3.621,11.511,11.511,0,0,1,1.217,5.369,11.26,11.26,0,0,1-1.217,5.328,8.91,8.91,0,0,1-3.372,3.59,10.079,10.079,0,0,1-8.731.531,6.315,6.315,0,0,1-2.705-2.122l-.354,2.31h-4.933V57.143h5.952V68.569a6.723,6.723,0,0,1,2.477-1.53,9.715,9.715,0,0,1,3.372-.551A9.51,9.51,0,0,1,322.635,67.757Zm-2.768,12.477a5.576,5.576,0,0,0,.021-7.034,4.3,4.3,0,0,0-3.319-1.343,4.5,4.5,0,0,0-3.371,1.322,4.775,4.775,0,0,0-1.291,3.486,4.967,4.967,0,0,0,1.28,3.559,4.44,4.44,0,0,0,3.382,1.353A4.312,4.312,0,0,0,319.867,80.233Z" transform="translate(0 -0.513)" fill="#121a55"/>
    <path id="Path_465" data-name="Path 465" d="M369.517,134.217a3.745,3.745,0,0,1,.021,5.39,4.255,4.255,0,0,1-5.671,0,3.744,3.744,0,0,1,.021-5.369,3.857,3.857,0,0,1,2.81-1.123A3.928,3.928,0,0,1,369.517,134.217Z" transform="translate(-32.855 -44.434)" fill="#13c9e7"/>
    <rect id="Rectangle_129" data-name="Rectangle 129" width="5.952" height="19.23" transform="translate(330.866 66.64)" fill="#121a55"/>
    <path id="Path_466" data-name="Path 466" d="M388.811,62.727a3.744,3.744,0,0,1-.021-5.39,4.255,4.255,0,0,1,5.671,0,3.743,3.743,0,0,1-.022,5.369,3.854,3.854,0,0,1-2.809,1.123A3.928,3.928,0,0,1,388.811,62.727Z" transform="translate(-47.257)" fill="#121a55"/>
    <rect id="Rectangle_130" data-name="Rectangle 130" width="5.952" height="19.23" transform="translate(341.397 66.64)" fill="#121a55"/>
    <path id="Path_467" data-name="Path 467" d="M431.657,80.562a8.808,8.808,0,0,1,3.372,3.6,12.358,12.358,0,0,1,0,10.7,8.874,8.874,0,0,1-3.372,3.61,9.448,9.448,0,0,1-4.922,1.28,9.877,9.877,0,0,1-3.371-.541,6.614,6.614,0,0,1-2.476-1.519v10.572h-5.952v-28.3h4.932l.354,2.227a6.385,6.385,0,0,1,2.706-2.133,9.358,9.358,0,0,1,3.808-.759A9.51,9.51,0,0,1,431.657,80.562Zm-2.767,12.518a5.578,5.578,0,0,0,.021-7.034,4.3,4.3,0,0,0-3.32-1.342,4.5,4.5,0,0,0-3.372,1.321,4.833,4.833,0,0,0-1.29,3.528,4.892,4.892,0,0,0,1.28,3.538,4.474,4.474,0,0,0,3.382,1.332A4.315,4.315,0,0,0,428.889,93.081Z" transform="translate(-63.028 -13.319)" fill="#121a55"/>
  </g>
</svg>
